<svg width="138" height="126" viewBox="0 0 138 126" fill="none" xmlns="http://www.w3.org/2000/svg">
<path fill-rule="evenodd" clip-rule="evenodd" d="M106.744 125.618H31.2593C30.2964 125.618 29.4918 124.841 29.4918 123.85C29.4918 111.863 39.2644 102.091 51.2508 102.091H86.7229C98.71 102.091 108.482 111.864 108.482 123.85C108.516 124.848 107.746 125.618 106.749 125.618H106.744ZM33.1026 122.117H104.901C104.014 112.86 96.1941 105.632 86.758 105.632H51.2858C41.809 105.632 33.9896 112.86 33.1026 122.117Z" fill="black"/>
<path fill-rule="evenodd" clip-rule="evenodd" d="M50.4004 105.623C49.7402 105.623 49.1487 105.252 48.8117 104.626C48.406 103.739 48.7361 102.707 49.6233 102.267C55.4895 99.4265 58.6943 96.4006 59.4302 93.1201C60.6475 87.6252 55.0425 80.7272 48.5504 72.7291C39.6994 61.8149 28.6347 48.2465 28.8953 30.8749V2.14928C28.8953 1.18645 29.6724 0.381836 30.6627 0.381836C31.6599 0.381836 32.4302 1.15897 32.4302 2.14928V30.9171C32.2101 47.0718 42.7941 60.0829 51.3088 70.5231C58.3923 79.2297 64.472 86.7121 62.8901 93.8648C61.9273 98.2869 58.0966 102.049 51.1988 105.405C50.9031 105.591 50.6417 105.625 50.3873 105.625L50.4004 105.623Z" fill="black"/>
<path fill-rule="evenodd" clip-rule="evenodd" d="M87.64 105.62C87.3856 105.62 87.1243 105.544 86.8629 105.434C79.965 102.078 76.1688 98.3162 75.1716 93.8941C73.583 86.7418 79.7106 79.2181 86.7529 70.5524C95.2737 60.0784 105.852 47.0592 105.632 30.9464V2.17858C105.632 1.21575 106.409 0.411133 107.399 0.411133C108.396 0.411133 109.166 1.18827 109.166 2.17858V30.9464C109.387 48.3115 98.3623 61.8868 89.5113 72.7672C83.0192 80.731 77.4142 87.6289 78.6315 93.1582C79.3674 96.4799 82.5791 99.4646 88.4385 102.305C89.3256 102.711 89.6557 103.777 89.25 104.664C88.9199 105.255 88.2871 105.62 87.6269 105.62L87.64 105.62Z" fill="black"/>
<path fill-rule="evenodd" clip-rule="evenodd" d="M112.83 3.91917H25.2135C24.2507 3.91917 23.446 3.14203 23.446 2.15172C23.446 1.15451 24.2232 0.384277 25.2135 0.384277H112.83C113.793 0.384277 114.598 1.16142 114.598 2.15172C114.598 3.14893 113.786 3.91917 112.83 3.91917Z" fill="black"/>
<path fill-rule="evenodd" clip-rule="evenodd" d="M24.8842 80.329C24.6298 80.329 24.334 80.329 24.0727 80.2946C20.5309 80.0402 17.9175 78.3759 16.7003 75.5768C15.1529 71.9662 16.2189 66.9871 19.3549 63.2253C19.8363 62.6338 20.6478 62.4481 21.3424 62.7095C22.0439 62.9639 22.484 63.6723 22.4496 64.4082C22.3396 66.8427 22.9998 68.6858 24.1827 69.3117C25.2556 69.9032 26.8785 69.5662 28.6048 68.3902C33.2882 65.2197 31.6308 61.5679 31.005 60.5364C29.492 57.9575 25.2487 55.4473 20.7922 52.7582C10.1738 46.4173 -4.35766 37.7107 2.38887 18.9762C5.88943 8.94231 13.9289 8.09635 18.3922 8.46766C27.1676 9.20352 32.6625 15.2142 32.3324 23.7352C32.078 30.9976 27.2088 34.8008 22.7456 34.6839C18.9494 34.5739 15.1462 31.5134 15.2562 24.9113C15.2562 24.2098 15.6964 23.5496 16.3979 23.2882C17.0581 23.0338 17.8352 23.2126 18.3165 23.7284C19.9052 25.4615 21.9683 25.537 23.1101 24.76C24.3617 23.8728 24.4374 22.0297 23.2958 19.8221C22.0785 17.4219 20.0153 16.8374 18.5022 16.7617C15.5864 16.6516 12.5671 18.3091 10.9441 20.9293C9.32102 23.5839 8.80532 26.1285 9.47233 28.7075C11.3498 36.2657 22.4909 42.8334 29.8281 47.1461C32.6685 48.8035 35.103 50.2408 36.5403 51.4238C42.3311 56.1828 43.3214 65.1783 38.7891 71.9257C36.0588 76.0933 30.6053 80.3296 24.8902 80.3296L24.8842 80.329ZM19.8706 69.4835C19.3548 71.1822 19.3548 72.874 19.905 74.167C20.5652 75.7556 22.0438 76.6015 24.2927 76.7872C28.7148 77.1173 33.4738 73.6168 35.874 70.0407C38.9001 65.543 39.1545 58.2049 34.2853 54.223C33.0337 53.1914 30.7093 51.8228 28.0133 50.2411C19.678 45.3375 8.24727 38.6253 5.99901 29.63C5.11184 26.1294 5.77894 22.5877 7.91769 19.1559C10.201 15.4353 14.4098 13.1452 18.6118 13.3309C22.0023 13.4753 24.8427 15.2841 26.39 18.2688C28.7488 22.8766 27.1672 26.2326 25.0627 27.6699C23.4053 28.8528 21.2666 29.0316 19.272 28.4058C19.9322 30.1389 21.1495 31.1361 22.8137 31.1704C25.6198 31.2461 28.6388 28.4401 28.8245 23.5711C29.079 16.9689 24.9527 12.5055 18.0959 11.9141C11.9408 11.3983 7.77313 14.1286 5.70304 20.098C-0.0531695 36.1358 11.9751 43.364 22.5937 49.7109C27.6485 52.737 32.0362 55.3571 34.0237 58.7064C36.0112 62.0624 36.2725 67.3373 30.5575 71.2437C27.6828 73.1968 24.7324 73.6025 22.4423 72.3165C21.3763 71.7319 20.4959 70.776 19.8634 69.483L19.8706 69.4835Z" fill="black"/>
<path fill-rule="evenodd" clip-rule="evenodd" d="M112.975 80.2931C107.219 80.2931 101.765 76.0154 99.0345 71.8823C94.5711 65.1357 95.6028 56.1334 101.393 51.4155C102.865 50.2326 105.3 48.7953 108.14 47.1379C115.512 42.8602 126.688 36.3681 128.607 28.8102C129.267 26.2314 128.792 23.6454 127.169 21.032C125.546 18.4117 122.52 16.72 119.611 16.83C118.098 16.8644 116.035 17.4559 114.783 19.8561C113.642 22.0706 113.71 23.9137 114.969 24.794C116.111 25.6055 118.174 25.4955 119.762 23.7968C120.244 23.281 121.014 23.0953 121.681 23.3567C122.341 23.6111 122.788 24.2438 122.788 24.9797C122.864 31.5819 119.027 34.6423 115.23 34.711C110.808 34.821 105.939 30.9903 105.678 23.7211C105.382 15.2002 110.911 9.23063 119.693 8.52922C124.157 8.15784 132.196 9.04501 135.662 19.1133C142.299 37.881 127.733 46.5114 117.115 52.7843C112.651 55.4389 108.408 57.9492 106.861 60.4937C106.235 61.5253 104.578 65.1427 109.22 68.3475C110.953 69.5304 112.541 69.8605 113.642 69.2691C114.825 68.6088 115.485 66.8002 115.375 64.3655C115.34 63.6296 115.815 62.9281 116.516 62.6668C117.218 62.4124 118.029 62.6324 118.504 63.1826C121.64 66.9788 122.672 71.958 121.124 75.5755C119.907 78.3815 117.287 80.0389 113.752 80.259C113.456 80.3003 113.236 80.3003 112.975 80.3003L112.975 80.2931ZM119.873 13.3224C123.93 13.3224 127.912 15.6057 130.161 19.1887C132.266 22.6204 132.892 26.1553 132.004 29.6627C129.756 38.6582 118.284 45.2947 109.914 50.1647C107.219 51.7533 104.86 53.0805 103.642 54.1122C98.7733 58.0941 98.9934 65.4322 101.985 69.93C104.385 73.5406 109.103 77.048 113.525 76.7522C115.774 76.6078 117.246 75.7206 117.913 74.1733C118.463 72.8804 118.463 71.1886 117.947 69.4898C117.356 70.7415 116.475 71.7043 115.327 72.3302C113.044 73.5818 110.093 73.1761 107.253 71.2229C101.538 67.3165 101.868 62.0005 103.862 58.6857C105.85 55.364 110.245 52.7506 115.327 49.759C125.987 43.4526 138.042 36.3003 132.362 20.2552C130.299 14.2789 126.131 11.5143 120.01 11.9957C113.154 12.5458 109.02 17.0093 109.206 23.5769C109.351 28.4048 112.342 31.2451 115.182 31.1763C116.84 31.1419 118.098 30.1447 118.759 28.4116C116.771 29.0375 114.625 28.8174 112.968 27.6345C110.905 26.1628 109.316 22.841 111.716 18.2334C113.264 15.2487 116.104 13.4398 119.536 13.3298C119.577 13.3229 119.728 13.3224 119.873 13.3224Z" fill="black"/>
<path fill-rule="evenodd" clip-rule="evenodd" d="M80.7138 52.1544C80.3425 52.1544 79.978 52.0444 79.6823 51.8243L68.9882 44.0461L58.2941 51.8243C57.6682 52.2645 56.8567 52.2645 56.2308 51.8243C55.605 51.3842 55.3437 50.5726 55.605 49.8711L59.6969 37.2995L49.0028 29.5558C48.377 29.1157 48.1157 28.3041 48.377 27.6026C48.5971 26.8667 49.2985 26.3853 50.0344 26.3853L63.2731 26.4197L67.3307 13.8481C67.5508 13.1123 68.2522 12.6309 68.9881 12.6309C69.724 12.6309 70.4255 13.1123 70.6455 13.8481L74.7032 26.4197L87.9418 26.3853C88.719 26.3853 89.3792 26.8667 89.5992 27.6026C89.8193 28.3385 89.5649 29.1156 88.9734 29.5558L78.2793 37.2995L82.3712 49.8711C82.5913 50.607 82.3369 51.3841 81.7454 51.8243C81.4497 52.0444 81.0783 52.1544 80.707 52.1544H80.7138ZM69.0226 40.0985C69.3939 40.0985 69.7584 40.2085 70.0542 40.4286L77.3922 45.7723L74.5862 37.1414C74.3662 36.4056 74.6206 35.6284 75.2121 35.1882L82.5502 29.879H73.4791C72.702 29.879 72.0418 29.3976 71.8217 28.6618L69.0157 20.0309L66.2097 28.6618C65.9896 29.3976 65.2881 29.879 64.5523 29.879H55.4812L62.8193 35.1882C63.4451 35.6284 63.7065 36.4399 63.4452 37.1414L60.6391 45.7723L67.9772 40.4286C68.2798 40.2085 68.6443 40.0985 69.0157 40.0985H69.0226Z" fill="black"/>
</svg>
