<svg width="190" height="118" viewBox="0 0 190 118" fill="none" xmlns="http://www.w3.org/2000/svg">
<path d="M189.116 36.5729C188.726 28.0111 177.78 22.8461 171.361 19.2702C171.501 18.1795 171.595 17.3148 170.886 16.7461C170.434 16.3877 158.663 12.4458 157.642 11.9861C157.05 11.7213 157.027 10.615 155.967 10.2177C154.448 9.64897 139.537 6.26783 135.501 5.10711C135.485 4.47607 135.524 3.62691 134.971 3.19064C134.683 2.96472 134.309 2.94914 133.958 2.93354C130.647 2.73878 129.611 3.11273 112.184 2.94134C112.145 2.48169 112.114 2.02985 112.036 1.57021C111.771 1.22741 111.529 0.853467 111.07 0.775567C110.104 0.627547 109.013 0.705453 108.039 0.705453C108 0.705453 80.0084 0.666504 79.3243 0.666504C78.8568 0.798942 78.4206 0.939173 78.1791 1.39882C77.922 1.88183 77.9921 2.45053 78.0778 2.96472C78.0389 2.96472 55.8904 3.08157 55.5634 3.12052C55.2439 3.15948 54.9557 3.27634 54.722 3.51004C54.4337 3.80609 54.3636 4.23456 54.3948 4.63188C54.4181 4.9357 54.5038 5.24732 54.5973 5.53557C53.1483 5.83161 35.7832 9.54765 34.3724 10.0385C34.0608 10.1475 33.7647 10.28 33.57 10.5682C33.3518 10.8876 33.3986 11.3706 33.3986 11.7446C33.3596 11.7602 20.4585 16.1539 19.773 16.4812C19.4692 16.6292 19.2121 16.7695 19.0485 17.0811C18.7057 17.7355 18.7914 18.5847 18.9473 19.2781C13.2836 22.3319 7.26144 24.9106 3.38179 30.3251C2.49367 31.5638 1.70683 32.896 1.27054 34.3605C0.592777 36.6275 0.904398 41.2706 0.904398 43.7949L1.10695 65.1107V80.6293C1.10695 83.4418 0.935555 86.3709 1.17706 89.1676C1.32508 90.8426 1.8782 92.4474 2.68064 93.9198C14.1638 114.938 83.2652 118.654 110.173 116.979C129.696 116.215 172.224 111.705 185.367 97.3934C187.058 95.5471 188.468 93.1009 188.912 90.6157C189.254 88.7071 189.075 92.4309 189.153 43.5685C189.122 41.2547 189.225 38.9024 189.116 36.5729ZM175.692 24.9262C174.306 26.2818 163.937 35.0538 162.441 36.3159C161.841 35.8952 160.501 34.3293 154.518 31.3377C154.985 30.9638 168.494 21.5294 168.907 21.249C168.946 21.2568 175.607 24.8716 175.692 24.9262ZM163.36 54.3891C163.352 49.9562 163.274 45.5079 163.376 41.075C166.811 43.0305 167.419 45.7883 167.427 49.2005L167.419 52.9711C162.659 54.6382 163.454 54.3579 163.36 54.3891ZM160.384 38.5043V55.3942C160.329 55.4098 154.837 57.0926 153.232 57.4353L153.264 34.0174C155.749 35.2716 158.265 36.6735 160.384 38.5043ZM167.403 18.5995C166.982 18.95 151.269 30.0204 151.23 30.0438C147.732 28.6726 144.071 27.6988 140.417 26.8574C141.484 25.7901 152.625 15.9741 155.001 14.1121C155.04 14.1277 165.822 18.0151 167.403 18.5995ZM51.0516 56.4766C75.7319 47.3772 119.024 47.0891 145.387 59.0864C129.191 61.93 114.179 64.0879 87.6044 63.4569C69.4524 63.0284 57.5413 61.369 44.9907 59.1877C46.8448 58.0191 48.987 57.2323 51.0516 56.4766ZM40.924 58.1749L40.0592 57.9645L39.9112 57.9178C39.7944 57.6218 39.9112 35.3794 39.9268 32.9563C43.674 31.4293 47.6939 30.3931 51.5424 29.1388C51.8462 29.5985 51.6593 50.353 51.6593 53.0553C48.0522 54.3641 43.9622 55.7521 40.924 58.1749ZM54.5573 28.6024C58.7876 27.6519 63.6333 27.1611 67.9648 26.6469C68.144 26.8417 68.0661 49.0916 68.0661 49.1295C63.4853 49.8306 59.0681 50.9836 54.5808 52.0899C54.3393 51.3498 54.4015 30.7902 54.5573 28.6024ZM71.0031 48.5919C70.9096 48.3115 70.8862 26.3427 70.8862 26.3028C76.285 25.4303 81.6448 25.3135 85.1039 25.1576C85.3142 25.4693 85.1896 44.9767 85.1818 47.2134C68.9542 48.6936 71.5952 48.6698 71.0031 48.5919ZM102.033 47.0338C97.3826 46.7845 92.7862 46.8469 88.1351 47.0105C88.1351 46.9715 88.1507 24.8769 88.1507 24.847C92.8016 24.7068 97.4915 24.7769 102.15 24.9249C102.135 27.4959 102.337 46.5592 102.033 47.0338ZM105.033 25.1815C107.043 25.1659 116.719 25.7658 118.978 26.1709L118.986 48.6534C114.397 47.9991 109.699 47.4771 105.064 47.2589C104.978 39.9047 105.033 32.5429 105.033 25.1815ZM121.915 26.5059C126.542 27.1447 131.287 27.7134 135.844 28.7496C135.844 28.7885 135.868 50.3606 135.735 52.3549C131.123 51.0773 126.589 49.9242 121.853 49.1685C121.814 41.6117 121.837 34.0544 121.915 26.5059ZM138.688 53.1886C138.664 52.168 138.563 30.4408 138.719 29.4356C139.14 29.5291 148.839 32.3883 150.288 32.8322C150.288 32.8712 150.405 57.4966 150.327 58.2066C150.117 58.2612 149.828 58.3469 149.61 58.2923C148.356 58.0196 148.613 56.6788 138.688 53.1886ZM134.278 8.08987C140.293 9.4532 146.26 11.0112 152.267 12.3901C152.173 12.4914 138.641 24.5901 136.693 25.9535C132.557 24.7303 128.334 24.037 124.065 23.476C125.841 20.4143 130.804 13.4184 134.278 8.08987ZM111.367 5.85398C118.371 5.72933 125.398 5.81503 132.41 5.8384C126.396 14.0107 121.963 21.4505 120.568 23.1645C115.574 22.7438 110.659 22.0582 105.642 21.9725C107.262 16.566 109.622 11.2527 111.367 5.85398ZM109.092 3.49344C106.272 11.1594 106.498 11.0581 102.478 21.9336C97.6325 21.5597 92.8337 21.6843 87.9802 21.8791C87.1621 19.355 82.2852 6.57067 81.1245 3.50133C82.3242 3.4468 109.047 3.49344 109.092 3.49344ZM78.8816 5.90843C80.8059 11.2372 82.9171 16.5035 84.8803 21.8167C81.5381 22.0816 76.8406 22.1361 69.6654 23.1489C69.6421 23.11 58.2758 6.00968 58.2523 5.97079C65.5598 5.91626 70.257 5.83831 78.8816 5.90843ZM56.094 8.2923H56.1407C56.7951 8.72857 65.3724 21.8634 66.432 23.6007C62.0849 24.0993 57.7378 24.7147 53.492 25.7664C52.7363 25.1431 39.1963 13.1614 38.3316 12.1095C41.4322 11.2214 55.2449 8.38584 56.094 8.2923ZM35.8551 14.0495C36.1979 14.1351 48.4368 25.112 49.8312 26.5065C46.1307 27.4803 42.555 28.6644 39.0179 30.1368C37.2651 28.6956 25.2364 20.5545 22.8059 18.529C24.7457 17.7188 31.9597 15.5452 35.8551 14.0495ZM29.9264 38.2631C31.7728 36.8764 34.6864 35.4429 36.7976 34.4457C36.969 34.6249 37.0158 32.8564 36.9534 57.4049C35.2161 56.9842 33.214 56.3843 29.8563 55.3716C29.9419 49.6689 29.9654 43.9656 29.9264 38.2631ZM21.3101 21.2565C21.8321 21.3266 34.3593 30.3325 36.1199 31.579C34.6631 32.5606 35.5824 31.5556 27.7529 36.0974C26.2727 34.9288 14.7351 24.9102 14.696 24.8713C18.1317 22.729 19.8377 22.2848 21.3101 21.2565ZM27.0284 54.4129C25.182 53.8832 23.141 53.0886 23.1019 53.073C23.0473 51.1721 22.9616 49.1622 23.1019 47.269C23.3122 44.5345 24.8781 42.283 26.9115 40.5379L26.9583 40.5847C27.2154 41.2469 27.0284 52.6756 27.0284 54.4129ZM12.0239 26.39C12.3901 26.6082 23.6551 36.3152 25.2989 37.9356C19.2691 43.9265 20.3285 47.0038 20.087 51.7871C18.1394 50.8757 8.76732 47.7828 4.93434 41.4802C1.32732 35.5516 6.14987 29.9504 12.0239 26.39ZM12.1408 98.8894L12.0317 98.9751C10.7852 98.4999 8.47137 96.5366 7.5055 95.5629C3.02594 91.0989 3.96868 87.6945 3.9609 80.3636L3.90636 65.6085C4.68541 66.2083 5.30865 67.1042 6.07205 67.7586C7.98073 69.4024 10.0686 70.7424 12.1954 72.0902L12.1408 98.8894ZM21.6063 103.696C19.3004 102.964 17.041 101.772 14.961 100.549C15 99.1388 15.0623 71.5448 14.9299 70.7351C14.8753 70.4156 14.6728 70.2053 14.4313 70.0027C13.7068 69.4029 12.7485 68.9666 11.9305 68.4914C10.2322 67.4942 8.56503 66.3022 7.17834 64.8999C3.46223 61.1294 3.67264 58.574 3.71153 53.6271C4.80999 54.4685 8.3624 59.4232 21.6609 64.2456C21.6687 64.3001 21.7231 100.487 21.6063 103.696ZM3.81269 44.9241C30.1603 72.4943 146.737 73.1345 181.21 49.5205C183.064 48.2507 184.646 46.7861 186.227 45.1967C186.313 46.9496 186.43 48.3207 185.565 49.9256C184.934 50.9228 184.225 51.7953 183.383 52.629C179.636 56.2827 174.378 58.6743 169.579 60.5831C162.824 63.2787 155.883 65.1093 148.777 66.6364C130.088 70.6485 110.705 72.043 91.6186 71.8094C69.2438 71.5368 45.1637 69.332 23.9735 61.9544C13.2849 58.2383 3.64915 53.4859 3.81269 44.9241ZM31.3051 75.8289C30.9779 76.1483 30.9545 76.6547 30.9234 77.0832C30.6351 81.0564 31.1415 78.4465 30.8299 106.897C28.672 106.258 26.4905 105.549 24.3948 104.724L24.426 65.2031C50.6959 72.7287 55.6419 72.0587 71.8621 74.0064L71.8154 82.8098C59.7789 81.7347 43.613 79.3352 32.255 75.3543C31.9278 75.4711 31.5544 75.5796 31.3051 75.8289ZM33.6345 107.551C33.5021 104.217 33.5021 83.1522 33.6267 78.9441C33.6657 78.9519 52.3706 84.6157 71.8788 85.7218L71.8866 113.495C62.4835 112.927 43.5067 110.434 33.6345 107.551ZM101.918 114.446C97.3603 114.789 92.6705 114.687 88.1052 114.477L88.113 90.8258C92.7561 90.7245 97.4227 90.8336 102.066 90.8258C102.081 93.0384 102.245 114.017 101.918 114.446ZM104.948 114.352C104.956 113.815 105.112 88.9481 104.785 88.5034C104.52 88.145 104.115 87.9736 103.686 87.9502C103.632 87.9502 86.9911 87.849 86.1888 87.9658C85.472 88.0671 85.2851 88.667 85.2305 89.3136C85.1838 89.8745 85.2072 87.2959 85.1682 114.461C81.7403 114.375 78.2268 114.149 74.8224 113.775C74.8224 113.736 74.8224 74.2147 74.8302 74.1768C97.5162 75.1818 104.869 74.6286 115.248 74.1379C115.295 77.7838 115.248 81.4297 115.256 85.0758L115.303 113.785C111.867 114.089 108.384 114.236 104.948 114.352ZM156.67 107.536C144.946 111.462 118.707 113.862 118.263 113.503C118.216 113.254 118.2 85.8632 118.2 85.8233C134.21 84.5223 156.389 79.0845 156.49 79.069C156.685 79.3027 156.67 107.498 156.67 107.536ZM166.011 104.762C163.923 105.51 161.719 106.297 159.545 106.749C159.42 103.796 159.623 77.659 159.467 76.7874C159.249 75.5877 158.462 75.6422 157.348 75.8526C157.309 75.8604 137.63 81.1422 118.216 82.7626L118.232 73.9593C126.108 73.1335 146.068 71.8714 165.856 65.0937C166.183 71.6767 166.011 104.714 166.011 104.762ZM185.784 91.0821C184.724 94.8215 181.514 97.634 178.211 99.4568C178.133 98.8881 178.164 101.545 178.125 71.8468C181.062 70.0705 183.937 68.1151 186.118 65.4353C186.134 65.5288 186.563 88.286 185.784 91.0821ZM186.352 57.6843C186.15 62.2497 182.363 65.7709 178.764 68.0613C177.783 68.6845 176.474 69.1753 175.64 69.9777C175.368 70.2426 175.336 70.4763 175.305 70.8347C175.188 71.9877 175.259 73.203 175.259 74.3637C175.266 96.7466 175.266 100.58 175.266 101.084V101.108V101.147C173.288 102.245 171.168 103.094 169.073 103.943L169.034 103.904C168.785 103.328 168.886 68.0835 168.87 64.0489C175.126 61.5793 181.545 58.8292 186.227 53.8277C186.516 54.2095 186.383 57.0922 186.352 57.6843ZM185.978 40.0154C183.509 46.318 174.76 49.6522 170.327 51.7946C170.335 49.9326 170.498 47.9071 170.218 46.0763C169.68 42.5473 167.32 40.3269 164.57 38.3015C164.609 38.2703 178.266 26.6156 178.312 26.5767C179.497 26.9818 184.069 30.5188 185.659 34.0401C186.5 35.9332 186.742 38.0677 185.978 40.0154Z" fill="black"/>
</svg>
